<svg viewBox="0 0 24 14.92" xmlns="http://www.w3.org/2000/svg"><g data-name="Camada 2"><g data-name="Camada 1"><path d="M23.5 4H22V2.5a.5.5 0 0 0-.5-.5H20V.5a.5.5 0 0 0-.5-.5H.5a.5.5 0 0 0-.5.5v9.91a.5.5 0 0 0 .5.5H2v1.5a.5.5 0 0 0 .5.5H4v1.5a.5.5 0 0 0 .5.5h19a.5.5 0 0 0 .5-.5V4.5a.5.5 0 0 0-.5-.5Zm-7.7 5.91H4.2A3.74 3.74 0 0 0 1 6.71V4.2A3.74 3.74 0 0 0 4.2 1h11.6A3.74 3.74 0 0 0 19 4.2v2.51a3.74 3.74 0 0 0-3.2 3.2Zm3.2-2.2v2.2h-2.21A2.76 2.76 0 0 1 19 7.71ZM19 1v2.21A2.76 2.76 0 0 1 16.79 1ZM1 1h2.21A2.76 2.76 0 0 1 1 3.21Zm0 6.71a2.76 2.76 0 0 1 2.21 2.2H1Zm2 3.21h16.5a.5.5 0 0 0 .5-.5V3h1v8.91H3Zm20 3H5v-1h16.5a.5.5 0 0 0 .5-.5V5h1Z" fill="#ffffff" class="fill-000000"></path><path d="M10 2.06a3.39 3.39 0 1 0 3.39 3.39A3.4 3.4 0 0 0 10 2.06Zm0 5.78a2.39 2.39 0 1 1 2.39-2.39A2.39 2.39 0 0 1 10 7.85Z" fill="#ffffff" class="fill-000000"></path></g></g></svg>